<?xml version="1.0" encoding="utf-8"?>
<!-- Generator: Adobe Illustrator 21.0.2, SVG Export Plug-In . SVG Version: 6.00 Build 0)  -->
<svg version="1.1" id="Ebene_1" xmlns="http://www.w3.org/2000/svg" xmlns:xlink="http://www.w3.org/1999/xlink" x="0px" y="0px"
	 viewBox="0 0 712 123" enable-background="new 0 0 712 123" xml:space="preserve">
<rect y="0" fill="#0B2C93" width="329.6" height="116"/>
<g>
	<g>
		<path fill="#063E97" d="M385.8,66.7h-9.6v7.8h11.1v2.4h-14V54.8h13.9v2.4h-11v7.1h9.6V66.7z"/>
		<path fill="#063E97" d="M400.4,75.3c-1.1,1.3-2.7,1.9-4.8,1.9c-1.7,0-3.1-0.5-4-1.5c-0.9-1-1.4-2.5-1.4-4.5V60.5h2.8v10.6
			c0,2.5,1,3.7,3,3.7c2.1,0,3.6-0.8,4.3-2.4V60.5h2.8v16.4h-2.7L400.4,75.3z"/>
		<path fill="#063E97" d="M415.4,63c-0.4-0.1-0.9-0.1-1.4-0.1c-1.8,0-3.1,0.8-3.7,2.4v11.6h-2.8V60.5h2.7l0,1.9
			c0.9-1.5,2.2-2.2,3.9-2.2c0.5,0,1,0.1,1.2,0.2V63z"/>
		<path fill="#063E97" d="M416.9,68.6c0-1.6,0.3-3.1,0.9-4.3c0.6-1.3,1.5-2.3,2.6-3c1.1-0.7,2.4-1,3.9-1c2.2,0,4,0.8,5.4,2.3
			c1.4,1.5,2.1,3.6,2.1,6.2v0.2c0,1.6-0.3,3-0.9,4.3c-0.6,1.3-1.5,2.3-2.6,3s-2.4,1.1-3.9,1.1c-2.2,0-4-0.8-5.4-2.3
			c-1.4-1.5-2.1-3.6-2.1-6.1V68.6z M419.7,68.9c0,1.8,0.4,3.3,1.3,4.4c0.8,1.1,2,1.7,3.4,1.7c1.4,0,2.6-0.6,3.4-1.7
			c0.8-1.1,1.3-2.7,1.3-4.7c0-1.8-0.4-3.3-1.3-4.4c-0.9-1.1-2-1.7-3.4-1.7c-1.4,0-2.5,0.6-3.4,1.7C420.1,65.3,419.7,66.9,419.7,68.9
			z"/>
		<path fill="#063E97" d="M449.2,68.9c0,2.5-0.6,4.5-1.7,6c-1.1,1.5-2.7,2.3-4.6,2.3c-2,0-3.6-0.6-4.7-1.9v7.9h-2.8V60.5h2.6
			l0.1,1.8c1.1-1.4,2.7-2.1,4.8-2.1c2,0,3.5,0.7,4.7,2.2s1.7,3.6,1.7,6.2V68.9z M446.4,68.6c0-1.9-0.4-3.3-1.2-4.4
			c-0.8-1.1-1.9-1.6-3.2-1.6c-1.7,0-3,0.8-3.8,2.3v7.8c0.8,1.5,2.1,2.2,3.9,2.2c1.3,0,2.4-0.5,3.2-1.6
			C446,72.3,446.4,70.7,446.4,68.6z"/>
		<path fill="#063E97" d="M459.6,77.2c-2.2,0-4-0.7-5.4-2.2c-1.4-1.5-2.1-3.4-2.1-5.9v-0.5c0-1.6,0.3-3.1,0.9-4.4
			c0.6-1.3,1.5-2.3,2.6-3c1.1-0.7,2.3-1.1,3.6-1.1c2.1,0,3.8,0.7,5,2.1c1.2,1.4,1.8,3.4,1.8,6v1.2h-11.1c0,1.6,0.5,2.9,1.4,3.9
			s2.1,1.5,3.5,1.5c1,0,1.8-0.2,2.5-0.6s1.3-0.9,1.8-1.6l1.7,1.3C464.4,76.2,462.3,77.2,459.6,77.2z M459.2,62.5
			c-1.1,0-2.1,0.4-2.9,1.2c-0.8,0.8-1.2,2-1.4,3.5h8.2V67c-0.1-1.4-0.5-2.5-1.2-3.3C461.3,62.9,460.4,62.5,459.2,62.5z"/>
		<path fill="#063E97" d="M479.4,76.9c-0.2-0.3-0.3-0.9-0.4-1.7c-1.3,1.4-2.9,2-4.7,2c-1.6,0-2.9-0.5-4-1.4s-1.6-2.1-1.6-3.5
			c0-1.7,0.6-3,1.9-4c1.3-0.9,3.1-1.4,5.5-1.4h2.7v-1.3c0-1-0.3-1.8-0.9-2.3c-0.6-0.6-1.5-0.9-2.6-0.9c-1,0-1.8,0.3-2.5,0.8
			c-0.7,0.5-1,1.1-1,1.8h-2.8c0-0.8,0.3-1.6,0.9-2.4c0.6-0.8,1.4-1.4,2.4-1.8s2.1-0.7,3.3-0.7c1.9,0,3.4,0.5,4.4,1.4
			c1.1,0.9,1.6,2.2,1.7,3.9v7.6c0,1.5,0.2,2.7,0.6,3.6v0.2H479.4z M474.7,74.8c0.9,0,1.7-0.2,2.5-0.7c0.8-0.5,1.4-1,1.7-1.8V69h-2.2
			c-3.4,0-5.2,1-5.2,3c0,0.9,0.3,1.6,0.9,2.1C473,74.5,473.8,74.8,474.7,74.8z"/>
		<path fill="#063E97" d="M488.8,60.5l0.1,2.1c1.3-1.6,2.9-2.4,4.9-2.4c3.5,0,5.2,2,5.2,5.9v10.8h-2.8V66.1c0-1.2-0.3-2.1-0.8-2.6
			c-0.5-0.6-1.4-0.8-2.5-0.8c-0.9,0-1.7,0.2-2.4,0.7c-0.7,0.5-1.2,1.1-1.6,1.9v11.7h-2.8V60.5H488.8z"/>
		<path fill="#063E97" d="M523.6,67.2h-9.3v9.8h-2.9V54.8h13.7v2.4h-10.8v7.6h9.3V67.2z"/>
		<path fill="#063E97" d="M527.1,68.6c0-1.6,0.3-3.1,0.9-4.3c0.6-1.3,1.5-2.3,2.6-3c1.1-0.7,2.4-1,3.9-1c2.2,0,4,0.8,5.4,2.3
			c1.4,1.5,2.1,3.6,2.1,6.2v0.2c0,1.6-0.3,3-0.9,4.3c-0.6,1.3-1.5,2.3-2.6,3s-2.4,1.1-3.9,1.1c-2.2,0-4-0.8-5.4-2.3
			c-1.4-1.5-2.1-3.6-2.1-6.1V68.6z M529.9,68.9c0,1.8,0.4,3.3,1.3,4.4c0.8,1.1,2,1.7,3.4,1.7c1.4,0,2.6-0.6,3.4-1.7
			c0.8-1.1,1.3-2.7,1.3-4.7c0-1.8-0.4-3.3-1.3-4.4c-0.9-1.1-2-1.7-3.4-1.7c-1.4,0-2.5,0.6-3.4,1.7C530.3,65.3,529.9,66.9,529.9,68.9
			z"/>
		<path fill="#063E97" d="M555.7,75.3c-1.1,1.3-2.7,1.9-4.8,1.9c-1.7,0-3.1-0.5-4-1.5c-0.9-1-1.4-2.5-1.4-4.5V60.5h2.8v10.6
			c0,2.5,1,3.7,3,3.7c2.1,0,3.6-0.8,4.3-2.4V60.5h2.8v16.4h-2.7L555.7,75.3z"/>
		<path fill="#063E97" d="M565.3,60.5l0.1,2.1c1.3-1.6,2.9-2.4,4.9-2.4c3.5,0,5.2,2,5.2,5.9v10.8h-2.8V66.1c0-1.2-0.3-2.1-0.8-2.6
			c-0.5-0.6-1.4-0.8-2.5-0.8c-0.9,0-1.7,0.2-2.4,0.7c-0.7,0.5-1.2,1.1-1.6,1.9v11.7h-2.8V60.5H565.3z"/>
		<path fill="#063E97" d="M579.1,68.6c0-2.5,0.6-4.5,1.8-6.1c1.2-1.5,2.8-2.3,4.7-2.3c1.9,0,3.4,0.7,4.6,2v-8.6h2.8v23.3h-2.6
			l-0.1-1.8c-1.1,1.4-2.7,2.1-4.7,2.1c-1.9,0-3.5-0.8-4.6-2.3s-1.8-3.6-1.8-6.1V68.6z M581.9,68.9c0,1.9,0.4,3.3,1.2,4.4
			c0.8,1.1,1.8,1.6,3.2,1.6c1.8,0,3.1-0.8,3.9-2.4v-7.5c-0.8-1.5-2.1-2.3-3.9-2.3c-1.4,0-2.4,0.5-3.2,1.6
			C582.3,65.3,581.9,66.8,581.9,68.9z"/>
		<path fill="#063E97" d="M607.4,76.9c-0.2-0.3-0.3-0.9-0.4-1.7c-1.3,1.4-2.9,2-4.7,2c-1.6,0-2.9-0.5-4-1.4s-1.6-2.1-1.6-3.5
			c0-1.7,0.6-3,1.9-4c1.3-0.9,3.1-1.4,5.5-1.4h2.7v-1.3c0-1-0.3-1.8-0.9-2.3c-0.6-0.6-1.5-0.9-2.6-0.9c-1,0-1.8,0.3-2.5,0.8
			c-0.7,0.5-1,1.1-1,1.8h-2.8c0-0.8,0.3-1.6,0.9-2.4c0.6-0.8,1.4-1.4,2.4-1.8s2.1-0.7,3.3-0.7c1.9,0,3.4,0.5,4.4,1.4
			c1.1,0.9,1.6,2.2,1.7,3.9v7.6c0,1.5,0.2,2.7,0.6,3.6v0.2H607.4z M602.8,74.8c0.9,0,1.7-0.2,2.5-0.7c0.8-0.5,1.4-1,1.7-1.8V69h-2.2
			c-3.4,0-5.2,1-5.2,3c0,0.9,0.3,1.6,0.9,2.1C601.1,74.5,601.9,74.8,602.8,74.8z"/>
		<path fill="#063E97" d="M618,56.5v4h3.1v2.2H618v10.2c0,0.7,0.1,1.2,0.4,1.5c0.3,0.3,0.7,0.5,1.4,0.5c0.3,0,0.8-0.1,1.3-0.2v2.3
			c-0.7,0.2-1.5,0.3-2.2,0.3c-1.3,0-2.2-0.4-2.8-1.1c-0.6-0.8-1-1.8-1-3.2V62.7h-3v-2.2h3v-4H618z"/>
		<path fill="#063E97" d="M624.4,56.2c0-0.5,0.1-0.8,0.4-1.2s0.7-0.5,1.2-0.5s1,0.2,1.2,0.5s0.4,0.7,0.4,1.2s-0.1,0.8-0.4,1.1
			c-0.3,0.3-0.7,0.5-1.2,0.5s-1-0.2-1.2-0.5C624.5,57,624.4,56.6,624.4,56.2z M627.4,76.9h-2.8V60.5h2.8V76.9z"/>
		<path fill="#063E97" d="M631.2,68.6c0-1.6,0.3-3.1,0.9-4.3c0.6-1.3,1.5-2.3,2.6-3c1.1-0.7,2.4-1,3.9-1c2.2,0,4,0.8,5.4,2.3
			c1.4,1.5,2.1,3.6,2.1,6.2v0.2c0,1.6-0.3,3-0.9,4.3c-0.6,1.3-1.5,2.3-2.6,3s-2.4,1.1-3.9,1.1c-2.2,0-4-0.8-5.4-2.3
			c-1.4-1.5-2.1-3.6-2.1-6.1V68.6z M634,68.9c0,1.8,0.4,3.3,1.3,4.4c0.8,1.1,2,1.7,3.4,1.7c1.4,0,2.6-0.6,3.4-1.7
			c0.8-1.1,1.3-2.7,1.3-4.7c0-1.8-0.4-3.3-1.3-4.4c-0.9-1.1-2-1.7-3.4-1.7c-1.4,0-2.5,0.6-3.4,1.7C634.4,65.3,634,66.9,634,68.9z"/>
		<path fill="#063E97" d="M652.3,60.5l0.1,2.1c1.3-1.6,2.9-2.4,4.9-2.4c3.5,0,5.2,2,5.2,5.9v10.8h-2.8V66.1c0-1.2-0.3-2.1-0.8-2.6
			c-0.5-0.6-1.4-0.8-2.5-0.8c-0.9,0-1.7,0.2-2.4,0.7c-0.7,0.5-1.2,1.1-1.6,1.9v11.7h-2.8V60.5H652.3z"/>
		<path fill="#063E97" d="M374.3,114.2V100h-2.6v-2.2h2.6v-1.7c0-1.8,0.5-3.1,1.4-4.1c0.9-1,2.3-1.4,4-1.4c0.6,0,1.3,0.1,1.9,0.3
			l-0.2,2.3c-0.5-0.1-1-0.1-1.5-0.1c-0.9,0-1.6,0.3-2.1,0.8c-0.5,0.5-0.7,1.3-0.7,2.3v1.7h3.5v2.2h-3.5v14.2H374.3z"/>
		<path fill="#063E97" d="M382.9,105.9c0-1.6,0.3-3.1,0.9-4.3s1.5-2.3,2.6-3c1.1-0.7,2.4-1,3.9-1c2.2,0,4,0.8,5.4,2.3
			c1.4,1.5,2.1,3.6,2.1,6.2v0.2c0,1.6-0.3,3-0.9,4.3c-0.6,1.3-1.5,2.3-2.6,3s-2.4,1.1-3.9,1.1c-2.2,0-4-0.8-5.4-2.3
			c-1.4-1.5-2.1-3.6-2.1-6.1V105.9z M385.8,106.2c0,1.8,0.4,3.3,1.3,4.4c0.8,1.1,2,1.7,3.4,1.7c1.4,0,2.6-0.6,3.4-1.7
			c0.8-1.1,1.3-2.7,1.3-4.7c0-1.8-0.4-3.3-1.3-4.4c-0.9-1.1-2-1.7-3.4-1.7c-1.4,0-2.5,0.6-3.4,1.7S385.8,104.1,385.8,106.2z"/>
		<path fill="#063E97" d="M409.3,100.3c-0.4-0.1-0.9-0.1-1.4-0.1c-1.8,0-3.1,0.8-3.7,2.4v11.6h-2.8V97.8h2.7l0,1.9
			c0.9-1.5,2.2-2.2,3.9-2.2c0.5,0,1,0.1,1.2,0.2V100.3z"/>
		<path fill="#063E97" d="M423.4,93.8v4h3.1v2.2h-3.1v10.2c0,0.7,0.1,1.2,0.4,1.5c0.3,0.3,0.7,0.5,1.4,0.5c0.3,0,0.8-0.1,1.3-0.2
			v2.3c-0.7,0.2-1.5,0.3-2.2,0.3c-1.3,0-2.2-0.4-2.8-1.1c-0.6-0.8-1-1.8-1-3.2V100h-3v-2.2h3v-4H423.4z"/>
		<path fill="#063E97" d="M432.6,99.8c1.2-1.5,2.9-2.3,4.9-2.3c3.5,0,5.2,2,5.2,5.9v10.8h-2.8v-10.9c0-1.2-0.3-2.1-0.8-2.6
			c-0.5-0.6-1.4-0.8-2.5-0.8c-0.9,0-1.7,0.2-2.4,0.7c-0.7,0.5-1.2,1.1-1.6,1.9v11.7h-2.8V90.9h2.8V99.8z"/>
		<path fill="#063E97" d="M453.7,114.5c-2.2,0-4-0.7-5.4-2.2s-2.1-3.4-2.1-5.9v-0.5c0-1.6,0.3-3.1,0.9-4.4s1.5-2.3,2.6-3
			c1.1-0.7,2.3-1.1,3.6-1.1c2.1,0,3.8,0.7,5,2.1s1.8,3.4,1.8,6v1.2h-11.1c0,1.6,0.5,2.9,1.4,3.9s2.1,1.5,3.5,1.5
			c1,0,1.8-0.2,2.5-0.6s1.3-0.9,1.8-1.6l1.7,1.3C458.5,113.5,456.4,114.5,453.7,114.5z M453.3,99.8c-1.1,0-2.1,0.4-2.9,1.2
			s-1.2,2-1.4,3.5h8.2v-0.2c-0.1-1.4-0.5-2.5-1.2-3.3C455.4,100.2,454.5,99.8,453.3,99.8z"/>
		<path fill="#063E97" d="M478,104.4c-2.5-0.7-4.3-1.6-5.5-2.6c-1.1-1-1.7-2.3-1.7-3.9c0-1.7,0.7-3.2,2.1-4.3
			c1.4-1.1,3.2-1.7,5.4-1.7c1.5,0,2.9,0.3,4.1,0.9c1.2,0.6,2.1,1.4,2.8,2.4c0.7,1,1,2.2,1,3.4h-2.9c0-1.3-0.4-2.4-1.3-3.2
			c-0.8-0.8-2-1.1-3.6-1.1c-1.4,0-2.6,0.3-3.4,1c-0.8,0.6-1.2,1.5-1.2,2.6c0,0.9,0.4,1.7,1.1,2.3s2.1,1.2,3.9,1.7s3.3,1.1,4.3,1.7
			s1.8,1.3,2.3,2.2c0.5,0.8,0.8,1.8,0.8,2.9c0,1.8-0.7,3.2-2.1,4.3s-3.3,1.6-5.6,1.6c-1.5,0-2.9-0.3-4.2-0.9c-1.3-0.6-2.3-1.4-3-2.4
			s-1.1-2.2-1.1-3.4h2.9c0,1.3,0.5,2.4,1.5,3.2c1,0.8,2.3,1.2,4,1.2c1.5,0,2.7-0.3,3.5-0.9s1.2-1.5,1.2-2.6s-0.4-1.9-1.1-2.5
			C481.3,105.5,479.9,104.9,478,104.4z"/>
		<path fill="#063E97" d="M493.2,93.8v4h3.1v2.2h-3.1v10.2c0,0.7,0.1,1.2,0.4,1.5c0.3,0.3,0.7,0.5,1.4,0.5c0.3,0,0.8-0.1,1.3-0.2
			v2.3c-0.7,0.2-1.5,0.3-2.2,0.3c-1.3,0-2.2-0.4-2.8-1.1c-0.6-0.8-1-1.8-1-3.2V100h-3v-2.2h3v-4H493.2z"/>
		<path fill="#063E97" d="M509.7,112.6c-1.1,1.3-2.7,1.9-4.8,1.9c-1.7,0-3.1-0.5-4-1.5c-0.9-1-1.4-2.5-1.4-4.5V97.8h2.8v10.6
			c0,2.5,1,3.7,3,3.7c2.1,0,3.6-0.8,4.3-2.4V97.8h2.8v16.4h-2.7L509.7,112.6z"/>
		<path fill="#063E97" d="M516,105.9c0-2.5,0.6-4.5,1.8-6.1s2.8-2.3,4.7-2.3c1.9,0,3.4,0.7,4.6,2v-8.6h2.8v23.3h-2.6l-0.1-1.8
			c-1.1,1.4-2.7,2.1-4.7,2.1c-1.9,0-3.5-0.8-4.6-2.3c-1.2-1.6-1.8-3.6-1.8-6.1V105.9z M518.8,106.2c0,1.9,0.4,3.3,1.2,4.4
			c0.8,1.1,1.8,1.6,3.2,1.6c1.8,0,3.1-0.8,3.9-2.4v-7.5c-0.8-1.5-2.1-2.3-3.9-2.3c-1.4,0-2.4,0.5-3.2,1.6
			C519.2,102.5,518.8,104.1,518.8,106.2z"/>
		<path fill="#063E97" d="M539.6,110.1l3.8-12.3h3l-6.6,18.9c-1,2.7-2.6,4.1-4.9,4.1l-0.5,0l-1-0.2v-2.3l0.8,0.1
			c1,0,1.7-0.2,2.2-0.6c0.5-0.4,1-1.1,1.3-2.1l0.6-1.7l-5.9-16.2h3.1L539.6,110.1z"/>
		<path fill="#063E97" d="M555.9,105.9c0-1.6,0.3-3.1,0.9-4.3s1.5-2.3,2.6-3c1.1-0.7,2.4-1,3.9-1c2.2,0,4,0.8,5.4,2.3
			c1.4,1.5,2.1,3.6,2.1,6.2v0.2c0,1.6-0.3,3-0.9,4.3c-0.6,1.3-1.5,2.3-2.6,3s-2.4,1.1-3.9,1.1c-2.2,0-4-0.8-5.4-2.3
			c-1.4-1.5-2.1-3.6-2.1-6.1V105.9z M558.7,106.2c0,1.8,0.4,3.3,1.3,4.4c0.8,1.1,2,1.7,3.4,1.7c1.4,0,2.6-0.6,3.4-1.7
			c0.8-1.1,1.3-2.7,1.3-4.7c0-1.8-0.4-3.3-1.3-4.4c-0.9-1.1-2-1.7-3.4-1.7c-1.4,0-2.5,0.6-3.4,1.7S558.7,104.1,558.7,106.2z"/>
		<path fill="#063E97" d="M575.7,114.2V100h-2.6v-2.2h2.6v-1.7c0-1.8,0.5-3.1,1.4-4.1c0.9-1,2.3-1.4,4-1.4c0.6,0,1.3,0.1,1.9,0.3
			l-0.2,2.3c-0.5-0.1-1-0.1-1.5-0.1c-0.9,0-1.6,0.3-2.1,0.8c-0.5,0.5-0.7,1.3-0.7,2.3v1.7h3.5v2.2h-3.5v14.2H575.7z"/>
		<path fill="#063E97" d="M593.2,114.2V92.1h6.2c1.9,0,3.6,0.4,5.1,1.3c1.5,0.8,2.6,2.1,3.4,3.6c0.8,1.6,1.2,3.4,1.2,5.4v1.4
			c0,2.1-0.4,3.9-1.2,5.5s-2,2.8-3.4,3.6c-1.5,0.8-3.2,1.3-5.2,1.3H593.2z M596.2,94.5v17.3h3.1c2.2,0,4-0.7,5.2-2.1s1.9-3.4,1.9-6
			v-1.3c0-2.5-0.6-4.5-1.8-5.9s-2.8-2.1-5-2.1H596.2z"/>
		<path fill="#063E97" d="M613.2,93.4c0-0.5,0.1-0.8,0.4-1.2s0.7-0.5,1.2-0.5s1,0.2,1.2,0.5s0.4,0.7,0.4,1.2s-0.1,0.8-0.4,1.1
			c-0.3,0.3-0.7,0.5-1.2,0.5s-1-0.2-1.2-0.5C613.3,94.3,613.2,93.9,613.2,93.4z M616.2,114.2h-2.8V97.8h2.8V114.2z"/>
		<path fill="#063E97" d="M630.8,114.2c-0.2-0.3-0.3-0.9-0.4-1.7c-1.3,1.4-2.9,2-4.7,2c-1.6,0-2.9-0.5-4-1.4s-1.6-2.1-1.6-3.5
			c0-1.7,0.6-3,1.9-4c1.3-0.9,3.1-1.4,5.5-1.4h2.7V103c0-1-0.3-1.8-0.9-2.3c-0.6-0.6-1.5-0.9-2.6-0.9c-1,0-1.8,0.3-2.5,0.8
			c-0.7,0.5-1,1.1-1,1.8h-2.8c0-0.8,0.3-1.6,0.9-2.4c0.6-0.8,1.4-1.4,2.4-1.8c1-0.4,2.1-0.7,3.3-0.7c1.9,0,3.4,0.5,4.4,1.4
			c1.1,0.9,1.6,2.2,1.7,3.9v7.6c0,1.5,0.2,2.7,0.6,3.6v0.2H630.8z M626.2,112.1c0.9,0,1.7-0.2,2.5-0.7c0.8-0.5,1.4-1,1.7-1.8v-3.4
			h-2.2c-3.4,0-5.2,1-5.2,3c0,0.9,0.3,1.6,0.9,2.1C624.5,111.8,625.3,112.1,626.2,112.1z"/>
		<path fill="#063E97" d="M651.5,106.2c0,2.5-0.6,4.5-1.7,6c-1.2,1.5-2.7,2.3-4.6,2.3c-2.1,0-3.7-0.7-4.8-2.2l-0.1,1.9h-2.6V90.9
			h2.8v8.7c1.1-1.4,2.7-2.1,4.7-2.1c2,0,3.6,0.8,4.7,2.3c1.1,1.5,1.7,3.6,1.7,6.2V106.2z M648.7,105.9c0-1.9-0.4-3.4-1.1-4.4
			c-0.7-1-1.8-1.6-3.2-1.6c-1.9,0-3.2,0.9-4,2.6v7.1c0.9,1.7,2.2,2.6,4,2.6c1.3,0,2.4-0.5,3.1-1.6
			C648.3,109.5,648.7,108,648.7,105.9z"/>
		<path fill="#063E97" d="M661.9,114.5c-2.2,0-4-0.7-5.4-2.2s-2.1-3.4-2.1-5.9v-0.5c0-1.6,0.3-3.1,0.9-4.4s1.5-2.3,2.6-3
			c1.1-0.7,2.3-1.1,3.6-1.1c2.1,0,3.8,0.7,5,2.1s1.8,3.4,1.8,6v1.2h-11.1c0,1.6,0.5,2.9,1.4,3.9s2.1,1.5,3.5,1.5
			c1,0,1.8-0.2,2.5-0.6s1.3-0.9,1.8-1.6l1.7,1.3C666.7,113.5,664.6,114.5,661.9,114.5z M661.5,99.8c-1.1,0-2.1,0.4-2.9,1.2
			s-1.2,2-1.4,3.5h8.2v-0.2c-0.1-1.4-0.5-2.5-1.2-3.3C663.6,100.2,662.7,99.8,661.5,99.8z"/>
		<path fill="#063E97" d="M675.3,93.8v4h3.1v2.2h-3.1v10.2c0,0.7,0.1,1.2,0.4,1.5c0.3,0.3,0.7,0.5,1.4,0.5c0.3,0,0.8-0.1,1.3-0.2
			v2.3c-0.7,0.2-1.5,0.3-2.2,0.3c-1.3,0-2.2-0.4-2.8-1.1c-0.6-0.8-1-1.8-1-3.2V100h-3v-2.2h3v-4H675.3z"/>
		<path fill="#063E97" d="M688.5,114.5c-2.2,0-4-0.7-5.4-2.2s-2.1-3.4-2.1-5.9v-0.5c0-1.6,0.3-3.1,0.9-4.4s1.5-2.3,2.6-3
			c1.1-0.7,2.3-1.1,3.6-1.1c2.1,0,3.8,0.7,5,2.1s1.8,3.4,1.8,6v1.2h-11.1c0,1.6,0.5,2.9,1.4,3.9s2.1,1.5,3.5,1.5
			c1,0,1.8-0.2,2.5-0.6s1.3-0.9,1.8-1.6l1.7,1.3C693.3,113.5,691.2,114.5,688.5,114.5z M688.1,99.8c-1.1,0-2.1,0.4-2.9,1.2
			s-1.2,2-1.4,3.5h8.2v-0.2c-0.1-1.4-0.5-2.5-1.2-3.3C690.2,100.2,689.3,99.8,688.1,99.8z"/>
		<path fill="#063E97" d="M707.7,109.9c0-0.8-0.3-1.3-0.9-1.8c-0.6-0.4-1.6-0.8-3-1.1c-1.4-0.3-2.5-0.7-3.4-1.1
			c-0.8-0.4-1.5-0.9-1.9-1.5c-0.4-0.6-0.6-1.3-0.6-2.1c0-1.3,0.6-2.5,1.7-3.4s2.6-1.4,4.4-1.4c1.9,0,3.4,0.5,4.5,1.4
			c1.2,1,1.7,2.2,1.7,3.7h-2.8c0-0.8-0.3-1.4-1-2c-0.7-0.6-1.5-0.8-2.5-0.8c-1,0-1.8,0.2-2.4,0.7c-0.6,0.4-0.9,1-0.9,1.7
			c0,0.7,0.3,1.2,0.8,1.5c0.5,0.3,1.5,0.7,2.9,1c1.4,0.3,2.5,0.7,3.4,1.1c0.9,0.4,1.5,1,1.9,1.6c0.4,0.6,0.6,1.4,0.6,2.2
			c0,1.5-0.6,2.6-1.8,3.5c-1.2,0.9-2.7,1.3-4.6,1.3c-1.3,0-2.5-0.2-3.5-0.7c-1-0.5-1.8-1.1-2.4-1.9s-0.9-1.7-0.9-2.7h2.8
			c0.1,0.9,0.4,1.7,1.1,2.2c0.7,0.6,1.6,0.8,2.8,0.8c1.1,0,1.9-0.2,2.6-0.6C707.3,111.2,707.7,110.6,707.7,109.9z"/>
	</g>
</g>
<g>
	<path fill="#FFFFFF" d="M61.1,27.5V56h1.4c4.4,0,7.6-1.4,9.6-4.2c2-2.8,3.3-6.9,3.8-12.3h2v36.6h-2c-0.4-4-1.3-7.3-2.6-9.8
		c-1.3-2.5-2.9-4.3-4.6-5.1c-1.8-0.9-4.3-1.3-7.6-1.3v19.7c0,3.8,0.2,6.2,0.5,7.1c0.3,0.9,0.9,1.6,1.8,2.1c0.9,0.5,2.3,0.8,4.3,0.8
		h4.2c6.5,0,11.8-1.5,15.7-4.5c3.9-3,6.8-7.6,8.5-13.8H98l-3.1,22.2H34.4v-1.9h2.3c2,0,3.7-0.4,4.9-1.1c0.9-0.5,1.6-1.3,2.1-2.5
		c0.4-0.8,0.6-3,0.6-6.5v-46c0-3.2-0.1-5.1-0.3-5.8c-0.3-1.2-1-2.1-1.9-2.8c-1.3-1-3.1-1.4-5.4-1.4h-2.3v-1.9h58.5v20.7h-2
		c-1-5.1-2.4-8.7-4.2-10.9c-1.8-2.2-4.4-3.8-7.7-4.8c-1.9-0.6-5.5-0.9-10.8-0.9H61.1z"/>
	<path fill="#FFFFFF" d="M131.8,27.5v28.7h2c3.1,0,5.6-0.5,7.6-1.4s3.6-2.5,5-4.7c1.4-2.2,2.2-5.2,2.7-8.9h1.8v35.1H149
		c-0.7-6.6-2.4-11-5.3-13.1c-2.9-2.1-6.2-3.2-9.9-3.2h-2v21.4c0,3.6,0.2,5.8,0.6,6.7c0.4,0.9,1.2,1.7,2.3,2.3c1.2,0.7,2.7,1,4.7,1
		h2.3v1.9h-36.5v-1.9h2.3c2,0,3.7-0.4,4.9-1.1c0.9-0.5,1.6-1.3,2.1-2.5c0.4-0.8,0.6-3,0.6-6.5v-46c0-3.6-0.2-5.8-0.6-6.7
		c-0.4-0.9-1.1-1.7-2.3-2.3c-1.2-0.7-2.7-1-4.7-1h-2.3v-1.9h59v20H162c-0.5-4.7-1.7-8.2-3.7-10.5c-2-2.3-4.8-3.9-8.6-4.8
		c-2.1-0.5-5.9-0.8-11.4-0.8H131.8z"/>
	<path fill="#FFFFFF" d="M216.8,21.9l0.6,23.3h-2.1c-1-5.8-3.4-10.5-7.3-14.1c-3.9-3.6-8.1-5.3-12.7-5.3c-3.5,0-6.3,0.9-8.3,2.8
		c-2,1.9-3.1,4-3.1,6.5c0,1.5,0.4,2.9,1.1,4.1c1,1.6,2.6,3.2,4.8,4.8c1.6,1.1,5.3,3.1,11.2,6c8.2,4,13.7,7.8,16.5,11.4
		c2.8,3.6,4.2,7.7,4.2,12.3c0,5.8-2.3,10.9-6.8,15.1c-4.6,4.2-10.3,6.3-17.3,6.3c-2.2,0-4.3-0.2-6.2-0.7c-2-0.4-4.4-1.3-7.4-2.5
		c-1.6-0.7-3-1-4.1-1c-0.9,0-1.8,0.3-2.8,1c-1,0.7-1.8,1.7-2.4,3.1h-1.9V68.6h1.9c1.5,7.4,4.4,13.1,8.7,17c4.3,3.9,9,5.8,13.9,5.8
		c3.8,0,6.9-1,9.2-3.1c2.3-2.1,3.4-4.5,3.4-7.3c0-1.6-0.4-3.2-1.3-4.8c-0.9-1.5-2.2-3-4-4.4c-1.8-1.4-4.9-3.2-9.5-5.4
		c-6.4-3.1-10.9-5.8-13.7-8c-2.8-2.2-4.9-4.7-6.4-7.4c-1.5-2.7-2.2-5.7-2.2-9c0-5.6,2-10.3,6.1-14.2c4.1-3.9,9.2-5.9,15.5-5.9
		c2.3,0,4.5,0.3,6.6,0.8c1.6,0.4,3.6,1.2,5.9,2.3c2.3,1.1,3.9,1.7,4.9,1.7c0.9,0,1.6-0.3,2.1-0.8c0.5-0.5,1-1.9,1.4-4H216.8z"/>
	<path fill="#FFFFFF" d="M227.3,93.4v-1.9h2.3c2,0,3.6-0.3,4.7-1c1.1-0.6,1.9-1.5,2.4-2.6c0.3-0.7,0.5-2.9,0.5-6.5v-46
		c0-3.6-0.2-5.8-0.6-6.7c-0.4-0.9-1.1-1.7-2.3-2.3c-1.2-0.7-2.7-1-4.7-1h-2.3v-1.9h31.3c8.3,0,15.1,1.1,20.2,3.4
		c6.2,2.8,10.9,7,14.1,12.6c3.2,5.6,4.8,12,4.8,19.1c0,4.9-0.8,9.4-2.4,13.6c-1.6,4.1-3.6,7.6-6.1,10.3c-2.5,2.7-5.4,4.9-8.7,6.5
		c-3.3,1.6-7.3,2.9-12,3.8c-2.1,0.4-5.4,0.6-9.9,0.6H227.3z M254,27.5V82c0,2.9,0.1,4.7,0.4,5.3c0.3,0.7,0.7,1.2,1.4,1.5
		c0.9,0.5,2.3,0.8,4,0.8c5.7,0,10.1-2,13.1-5.9c4.1-5.3,6.2-13.5,6.2-24.6c0-9-1.4-16.1-4.2-21.5c-2.2-4.2-5.1-7-8.6-8.6
		C263.8,28,259.7,27.5,254,27.5z"/>
</g>
</svg>
